<svg viewBox="0 0 200 200" xmlns="http://www.w3.org/2000/svg">
  <!-- Light Infantry, Rank 5 / Tier 5 "Sci-fi" — stealth suit, energy blade -->

  <ellipse cx="100" cy="188" rx="40" ry="7" fill="#000000" opacity="0.28"/>

  <g id="body">
    <g id="legs">
      <path d="M90,110 L87,155 Q86,166 93,168 L103,168 Q105,164 101,158 L99,110 Z" fill="#4d545c"/>
      <ellipse cx="95" cy="172" rx="10" ry="6" fill="#2b2f33"/>

      <path d="M114,110 L126,152 Q129,164 121,168 L109,168 Q106,164 110,156 L112,110 Z" fill="#9aa4ad"/>
      <ellipse cx="118" cy="172" rx="11" ry="7" fill="#2b2f33"/>
      <ellipse cx="116" cy="140" rx="8" ry="5" fill="#c9d3da" opacity="0.4"/>
      <path d="M92,120 L96,160" stroke="#bfe8ff" stroke-width="1" opacity="0.35"/>
      <path d="M117,118 L121,158" stroke="#bfe8ff" stroke-width="1" opacity="0.35"/>
    </g>

    <path d="M84,54 Q50,66 54,120 Q57,152 84,162 L98,144 Q72,118 76,84 Q79,64 102,56 Z" fill="#4da3ff" opacity="0.18"/>
    <path id="army-accent" fill="#4da3ff" opacity="0.9"
      d="M90,56 Q58,68 62,118 Q65,148 88,158 L96,142 Q76,120 80,88 Q83,68 100,58 Z"/>
    <path d="M84,90 Q78,116 90,140" stroke="#eaffff" stroke-width="3" fill="none" opacity="0.55" stroke-linecap="round"/>

    <rect x="82" y="56" width="46" height="54" rx="14" fill="#9aa4ad"/>
    <rect x="84" y="58" width="42" height="16" rx="10" fill="#c9d3da" opacity="0.4"/>
    <path d="M82,98 Q105,108 128,98 L128,110 Q105,118 82,110 Z" fill="#4d545c"/>
    <path d="M86,62 L86,104" stroke="#4d545c" stroke-width="1" opacity="0.4"/>
    <path d="M124,62 L124,104" stroke="#4d545c" stroke-width="1" opacity="0.4"/>

    <rect x="80" y="106" width="50" height="8" rx="3" fill="#4d545c"/>
    <rect x="99" y="105" width="10" height="10" rx="2" fill="#c9d3da"/>
    <circle cx="104" cy="110" r="1.6" fill="#bfe8ff"/>

    <path d="M88,62 Q70,78 68,104 Q67,111 74,113 L82,108 Q80,88 94,68 Z" fill="#9aa4ad"/>
    <path d="M66,96 L82,108" stroke="#4d545c" stroke-width="4" stroke-linecap="round"/>
    <circle cx="66" cy="108" r="7" fill="#4d545c"/>

    <rect x="102" y="48" width="12" height="8" fill="#4d545c"/>

    <circle cx="108" cy="38" r="14" fill="#4d545c"/>
    <path d="M92,40 Q90,18 108,16 Q126,18 124,40 Q124,26 108,24 Q94,26 92,40 Z" fill="#2b2f33"/>
    <path d="M96,42 Q108,48 120,42 L120,48 Q108,54 96,48 Z" fill="#1c1f22"/>
    <ellipse cx="103" cy="30" rx="9" ry="3.5" fill="#0b0e12"/>
    <ellipse cx="103" cy="30" rx="7" ry="2.2" fill="#bfe8ff" opacity="0.8"/>
  </g>

  <g id="weapon-arm">
    <path d="M120,64 Q144,66 154,84 Q157,91 149,94 L142,89 Q136,76 116,72 Z" fill="#9aa4ad"/>
    <circle cx="150" cy="90" r="6" fill="#4d545c"/>
    <rect x="145" y="87" width="8" height="5" rx="2" fill="#4d545c"/>
    <path d="M151,86 L184,72 L187,77 L155,91 Z" fill="#bfe8ff" opacity="0.35"/>
    <path d="M152,87 L182,74 L184,78 L155,90 Z" fill="#eaffff"/>
    <path d="M153,87 L182,75" stroke="#c9d3da" stroke-width="1" opacity="0.7"/>
  </g>

  <g id="rank-badge">
    <circle cx="176" cy="32" r="11" fill="#0b0e12"/>
    <text x="176" y="37" font-family="system-ui, sans-serif" font-size="15" font-weight="bold" fill="#e6edf3" text-anchor="middle">5</text>
  </g>
</svg>
